<svg width="106" height="27" viewBox="0 0 106 27" fill="none" xmlns="http://www.w3.org/2000/svg">
<path d="M8.9401 20.4301C10.3801 20.4301 11.6101 19.3801 11.8501 17.9701L12.0601 16.6801L12.3001 16.7101L11.6101 21.0001H0.600098V20.7601H1.0501C1.8901 20.7601 2.5501 20.1001 2.5501 19.2901V2.4901C2.5501 1.6801 1.8901 1.0201 1.0501 1.0201H0.600098V0.750098H11.2801L11.9701 5.0401L11.7301 5.0701L11.4301 3.2401C11.2501 2.1301 10.2901 1.3201 9.1801 1.3201H3.6301V9.9901H8.5801C9.4201 9.9901 10.0801 9.3301 10.0801 8.4901V7.9501H10.3201V12.6001H10.0801V12.0301C10.0801 11.2201 9.4201 10.5601 8.5801 10.5601H3.6301V20.4301H8.9401Z" fill="#E5E5E5"/>
<path d="M22.3609 17.1901L22.6609 17.2201C21.9409 19.5301 20.4409 21.1501 18.5809 21.1501C16.0009 21.1501 13.9009 18.0601 13.9009 14.2501C13.9009 14.0401 13.9009 13.8601 13.9009 13.6501C13.9609 12.8101 14.1109 11.9701 14.3809 11.1601C15.1309 8.9401 16.6909 7.4101 18.4909 7.3801H18.5809C19.9309 7.3801 21.1609 8.2201 22.0009 9.5701C22.0909 9.7201 22.1509 9.8701 22.1809 10.0501C22.2409 10.5001 22.0909 10.9501 21.5809 11.0101C21.1909 11.0401 20.8009 10.7401 20.7109 10.2901C20.5609 9.6601 20.3209 9.0601 19.8109 8.6701C19.1809 8.1901 18.5209 7.9801 17.8309 8.0701C17.4409 8.1301 17.0809 8.2801 16.7809 8.4901C14.9209 9.7501 14.2609 13.3501 15.2509 16.5301C15.3109 16.7101 15.3709 16.8601 15.4309 17.0101C16.3009 19.3801 17.8609 20.7001 19.3909 20.4301C19.7509 20.3701 20.0809 20.2201 20.3509 20.0401C21.1909 19.4701 21.9709 18.4201 22.3609 17.1901Z" fill="#E5E5E5"/>
<path d="M29.6042 7.3801C32.3942 7.3801 34.6442 10.4701 34.6442 14.2501C34.6442 18.0601 32.3942 21.1501 29.6042 21.1501C26.8442 21.1501 24.5942 18.0601 24.5942 14.2501C24.5942 10.4701 26.8442 7.3801 29.6042 7.3801ZM31.5842 20.0401C33.5342 18.7801 34.2542 15.1801 33.1742 12.0001C32.0942 8.7901 29.6042 7.2301 27.6542 8.4901C25.6742 9.7201 24.9542 13.3501 26.0342 16.5301C27.1442 19.7401 29.6042 21.3001 31.5842 20.0401Z" fill="#E5E5E5"/>
<path d="M44.0942 0.750098C49.4642 0.750098 53.7842 4.9201 53.7842 10.8901C53.7842 16.8601 49.4642 21.0001 44.1242 21.0001H35.8442V20.7601H36.2342C37.0442 20.7601 37.7342 20.1001 37.7342 19.2901V2.4901C37.7342 1.6801 37.0442 1.0201 36.2342 1.0201H35.8442V0.750098H44.0942ZM44.0942 20.4301C48.8642 20.4301 52.7342 16.5901 52.7342 10.8901C52.7342 5.4001 48.8642 1.3501 44.0942 1.3501H38.7842V20.4301H44.0942Z" fill="#E5E5E5"/>
<path d="M58.441 8.4901C57.241 9.3001 56.551 11.0401 56.461 13.0201H63.781C63.721 12.6901 63.631 12.3301 63.541 11.9701C62.551 8.7901 60.301 7.2301 58.441 8.4901ZM62.011 20.0101C63.091 19.2901 64.291 17.8201 64.471 16.0801H64.741C64.201 18.9901 62.401 21.1201 60.241 21.1201C57.631 21.1201 55.561 18.0601 55.561 14.2501C55.561 10.4701 57.631 7.3801 60.241 7.3801C62.671 7.3801 64.651 10.1101 64.891 13.5901H56.461C56.461 14.5801 56.641 15.5701 56.911 16.5301C57.901 19.7101 60.151 21.2701 62.011 20.0101Z" fill="#E5E5E5"/>
<path d="M73.5186 7.4701L74.6286 12.0301L74.3586 12.0901L74.3286 11.8801C73.8186 9.8101 72.3486 8.5801 71.5686 8.2201C70.3686 7.6801 67.1586 7.8601 67.7286 10.8601C68.0286 12.2701 69.9186 13.1401 71.5686 14.1901C72.8886 15.0301 74.3886 15.9601 74.5686 17.3701C74.9286 19.8601 72.9486 21.1201 70.7886 21.1201H70.7586C69.9786 21.1201 68.6286 20.7601 67.8486 20.2201C67.6086 20.0401 67.2486 20.2501 67.3386 20.5201L67.4286 21.0001L67.1586 21.0601L66.0786 16.3501L66.3186 16.3201L66.3786 16.5301C66.7986 18.1501 69.4386 21.4501 72.0186 20.3401C72.8286 20.0101 73.7286 19.2601 73.4586 17.6401C73.2486 16.2001 71.0586 15.2701 69.4086 14.1901C68.0886 13.3801 66.8586 12.4201 66.6186 11.0401C66.2286 8.4901 68.7186 7.4101 70.2486 7.4101H70.2786C71.0586 7.4101 72.0486 7.6501 72.8286 8.1901C73.0986 8.3701 73.4286 8.1601 73.3686 7.8901L73.2786 7.5001L73.5186 7.4701Z" fill="#E5E5E5"/>
<path d="M80.2145 20.7601H80.3345V21.0001H76.0745V20.7601H76.1645C77.0045 20.7601 77.6645 20.1001 77.6645 19.2901V9.1201C77.6645 8.4001 76.9745 7.8901 76.2845 8.0701L75.8945 8.1601L75.8345 7.9201L78.5345 7.2301L78.7145 7.4101V19.2901C78.7145 20.1001 79.3745 20.7601 80.2145 20.7601ZM78.1145 2.4001C77.6045 2.4001 77.2145 2.0101 77.2145 1.5001C77.2145 1.0201 77.6945 0.600098 78.1145 0.600098C78.5345 0.600098 78.9245 1.0201 78.9245 1.5001C78.9245 1.9801 78.5945 2.4001 78.1145 2.4001Z" fill="#E5E5E5"/>
<path d="M89.1074 8.4001C90.1274 6.3001 92.7974 7.0801 92.7974 8.6101V8.6701C92.7674 8.9401 92.6174 9.1801 92.3774 9.3001C91.8674 9.5401 91.2974 9.1501 91.3274 8.5801C91.4174 7.2301 89.8274 7.4101 89.3474 8.6401C90.2774 9.5701 90.8774 11.0101 90.8774 12.5701C90.8774 15.4501 88.9274 17.7601 86.5274 17.7601C85.5374 17.7601 84.6074 17.3401 83.8574 16.6801C83.4074 17.2201 81.5174 19.6801 82.9874 20.4901C84.1874 21.1801 89.9474 17.0401 91.9574 20.2801C93.1874 22.2901 91.1774 24.7801 88.6274 25.7101C86.7074 26.4301 83.6774 26.9701 82.4774 25.4101C81.1574 23.7001 82.9274 21.9001 83.2574 21.5701C82.7474 21.6601 82.3274 21.6301 81.9674 21.3001C81.0074 20.4601 81.6374 18.5401 83.6174 16.4401C82.7474 15.5101 82.1774 14.1301 82.1774 12.5701C82.1774 9.7201 84.1274 7.4101 86.5274 7.4101C87.4874 7.4101 88.3874 7.7701 89.1074 8.4001ZM90.9674 20.9101C90.3374 19.5301 88.2374 19.3201 85.7474 20.4901C85.0574 20.8201 84.4574 21.1501 83.9174 21.3601C81.3674 23.9401 84.2174 26.9101 88.4174 25.2301C90.5174 24.3901 91.6874 22.4701 90.9674 20.9101ZM87.7574 16.9501C89.4974 16.4401 90.3974 14.1001 89.7074 11.7001C89.0474 9.2701 87.0674 7.7401 85.2974 8.2201C83.5574 8.7301 82.6574 11.0701 83.3474 13.4701C84.0074 15.9001 85.9874 17.4301 87.7574 16.9501Z" fill="#E5E5E5"/>
<path d="M105.759 20.7601H105.879V21.0001H101.679V20.7601H101.769C102.579 20.7601 103.239 20.1001 103.239 19.2901V12.0601C103.239 10.0501 102.369 8.0401 100.269 8.3401C98.6185 8.5801 97.5685 10.1701 96.8485 11.3401V19.2901C96.8485 20.1001 97.5085 20.7601 98.3185 20.7601H98.4385V21.0001H94.2385V20.7601H94.3285C95.1385 20.7601 95.7985 20.1001 95.7985 19.2901V9.2101C95.7985 8.5201 95.1385 8.0101 94.4485 8.1901L94.0285 8.2801L93.9985 8.0401L96.6685 7.3501L96.8485 7.5301V10.5301C97.0585 10.2301 98.3185 7.5601 100.359 7.3801C101.709 7.2301 104.289 7.6801 104.289 12.1801V19.2901C104.289 20.1001 104.949 20.7601 105.759 20.7601Z" fill="#E5E5E5"/>
</svg>
